<?xml version="1.0" standalone="no"?>
<!DOCTYPE svg PUBLIC "-//W3C//DTD SVG 20010904//EN"
 "http://www.w3.org/TR/2001/REC-SVG-20010904/DTD/svg10.dtd">
<svg version="1.0" xmlns="http://www.w3.org/2000/svg"
 width="5000.000000pt" height="5000.000000pt" viewBox="0 0 5000.000000 5000.000000"
 preserveAspectRatio="xMidYMid meet">

<g transform="translate(0.000000,5000.000000) scale(0.100000,-0.100000)"
fill="#000000" stroke="none">
<path d="M13280 30870 c-79 -11 -212 -52 -294 -90 -34 -15 -87 -31 -119 -34
-123 -13 -179 -59 -421 -351 -520 -625 -1033 -1342 -1200 -1680 -188 -378
-515 -1076 -604 -1285 -14 -34 -14 -35 5 -18 10 10 37 49 58 88 31 54 45 70
62 70 19 0 21 -3 14 -22 -5 -13 -33 -81 -61 -153 -29 -71 -85 -224 -125 -340
-40 -115 -101 -286 -134 -380 -65 -178 -224 -795 -276 -1065 -77 -407 -47
-873 75 -1163 17 -40 38 -108 46 -152 24 -115 43 -149 160 -282 180 -203 320
-310 493 -374 78 -29 101 -33 246 -39 142 -7 170 -11 253 -40 181 -61 279 -70
513 -48 101 9 156 9 272 -2 119 -11 154 -11 191 0 59 16 124 74 186 164 27 39
72 96 102 126 214 224 389 574 733 1470 75 195 168 431 206 524 81 196 101
270 103 381 3 191 -89 316 -245 334 -111 13 -527 -57 -708 -119 -99 -35 -165
-75 -221 -136 -87 -95 -102 -188 -50 -317 34 -85 38 -145 14 -222 -8 -27 -37
-133 -64 -235 -55 -208 -93 -320 -156 -464 -89 -203 -217 -382 -305 -427 -188
-96 -311 133 -393 733 -62 452 -61 678 7 1058 26 140 53 323 62 405 32 301
109 782 154 964 61 243 192 594 326 876 37 77 91 195 121 262 120 274 194 397
322 536 86 94 148 199 177 299 39 136 214 302 377 359 59 21 70 22 108 10 55
-16 87 -52 107 -120 14 -50 15 -86 4 -356 -14 -364 -26 -560 -52 -900 -36
-472 -70 -1141 -59 -1169 10 -28 17 -30 267 -90 337 -80 558 -32 754 163 90
91 149 179 198 299 145 351 164 935 50 1494 -140 691 -460 1219 -843 1393
-131 60 -296 84 -436 65z"/>
<path d="M8660 30715 c-325 -42 -581 -139 -792 -301 -40 -31 -134 -101 -208
-157 -74 -55 -147 -113 -162 -129 -31 -33 -17 -31 -193 -32 l-141 -1 -76 -38
c-65 -32 -86 -49 -145 -120 -198 -236 -243 -308 -449 -715 -93 -183 -192 -379
-221 -435 -61 -121 -636 -1607 -717 -1853 -139 -426 -201 -820 -176 -1114 6
-69 15 -215 20 -325 19 -392 78 -658 210 -945 174 -379 403 -647 753 -884 177
-119 333 -177 512 -191 44 -4 127 -16 185 -28 149 -31 257 -30 340 5 36 14
150 54 254 87 395 127 502 203 974 692 252 261 338 361 361 422 5 14 55 97
111 184 120 188 187 321 234 463 19 58 64 177 100 265 36 88 77 207 91 265 15
58 55 206 91 330 72 252 98 371 114 510 24 219 34 276 82 500 46 218 51 250
59 440 11 247 19 296 65 395 125 271 176 573 155 924 -13 213 -29 311 -82 501
-154 551 -222 670 -588 1043 -173 176 -230 213 -366 242 -84 18 -262 18 -395
0z m315 -1411 c37 -13 68 -35 120 -88 114 -115 155 -216 155 -382 0 -263 -86
-1024 -156 -1386 -74 -387 -205 -821 -358 -1193 -83 -201 -260 -558 -354 -712
-204 -336 -501 -694 -828 -999 -178 -166 -217 -193 -410 -285 -156 -74 -173
-80 -217 -75 -63 7 -137 48 -201 113 -95 95 -137 200 -181 458 -34 194 -76
399 -126 605 -22 91 -44 201 -50 245 -6 44 -28 160 -50 257 -21 98 -39 197
-39 220 0 24 9 106 19 183 11 77 27 201 36 275 8 74 22 160 31 190 8 30 19 99
24 154 4 54 13 103 18 108 7 7 58 2 161 -16 172 -30 254 -53 365 -103 79 -35
80 -36 188 -31 115 6 151 19 168 61 4 12 18 49 31 82 12 33 58 139 102 235
164 362 207 461 207 479 0 10 7 24 16 32 8 7 26 34 39 60 29 56 115 271 140
349 27 84 58 140 175 320 58 91 169 270 246 399 76 129 158 255 182 282 44 50
109 87 242 141 129 52 201 57 305 22z"/>
<path d="M21685 30714 c-284 -37 -549 -134 -746 -276 -124 -88 -399 -300 -399
-306 0 -4 -13 -15 -29 -25 -24 -14 -45 -16 -140 -10 -203 11 -287 -30 -438
-217 -150 -185 -211 -286 -387 -635 -91 -181 -182 -357 -201 -390 -19 -33 -50
-96 -70 -140 -69 -157 -634 -1633 -680 -1775 -146 -457 -202 -819 -177 -1157
7 -87 17 -237 22 -333 22 -374 75 -607 207 -895 122 -267 231 -426 427 -620
136 -134 327 -281 457 -349 105 -56 236 -95 356 -107 60 -6 155 -21 213 -32
155 -31 224 -33 296 -8 32 12 122 42 199 67 246 80 288 95 377 140 217 109
339 213 755 644 183 190 258 281 301 366 12 23 64 109 116 191 121 192 168
286 227 453 26 74 74 200 107 280 33 80 69 186 81 235 13 50 53 198 91 330 82
290 106 404 126 595 16 150 28 217 89 505 32 147 38 198 45 375 11 243 16 277
68 395 50 114 95 253 124 386 21 95 23 128 23 394 -1 337 -10 406 -96 699
-146 499 -212 612 -560 971 -140 143 -171 170 -233 200 -129 64 -309 80 -551
49z m352 -1425 c118 -57 220 -202 245 -347 25 -145 -42 -858 -128 -1370 -136
-813 -486 -1702 -894 -2272 -188 -262 -461 -569 -704 -789 -156 -142 -205
-174 -397 -262 -131 -60 -160 -70 -196 -66 -138 15 -282 167 -336 357 -9 30
-30 134 -47 230 -36 202 -89 454 -131 621 -16 64 -35 163 -43 221 -8 57 -31
174 -50 260 -40 172 -43 229 -22 363 8 50 22 158 31 240 8 83 22 179 30 215 8
36 22 119 30 184 8 66 17 121 20 124 9 9 316 -49 400 -75 44 -14 100 -37 125
-51 42 -25 53 -27 170 -27 115 0 128 2 158 23 17 13 32 28 32 34 0 20 74 195
200 473 70 154 130 294 134 310 4 17 16 40 27 51 24 26 102 206 159 370 44
126 81 196 191 359 36 55 129 204 204 330 228 380 220 370 344 434 204 105
324 121 448 60z"/>
<path d="M4305 30383 c-150 -7 -380 -26 -480 -39 -229 -31 -592 -121 -783
-193 -42 -17 -144 -54 -227 -84 -113 -41 -192 -79 -320 -152 -213 -122 -447
-277 -590 -392 -419 -335 -735 -806 -811 -1210 -12 -64 -15 -123 -12 -218 6
-159 28 -233 120 -392 198 -345 349 -513 704 -780 172 -130 268 -192 606 -395
522 -312 974 -627 1085 -755 106 -122 178 -257 244 -454 36 -108 39 -122 29
-161 -24 -91 -248 -267 -504 -395 -119 -60 -557 -249 -716 -309 -135 -52 -515
-134 -617 -134 -52 0 -185 34 -218 56 -47 31 -57 65 -50 167 10 142 34 295 56
367 32 102 79 180 235 395 80 110 151 212 159 226 11 20 12 49 7 125 l-7 99
-47 9 c-27 4 -48 11 -48 15 0 4 27 20 60 36 62 30 75 45 40 45 -27 0 -65 -20
-114 -59 -35 -28 -46 -31 -108 -31 -114 0 -151 -26 -225 -158 -26 -46 -68 -96
-136 -162 -316 -303 -638 -789 -713 -1077 -33 -126 -38 -287 -10 -377 95 -314
426 -514 956 -576 252 -30 588 28 810 140 90 45 163 60 302 60 169 0 213 10
400 91 398 172 677 396 872 697 58 91 184 351 214 442 55 166 65 230 65 405 0
142 -3 171 -27 259 -92 340 -267 653 -494 884 -92 95 -358 317 -497 415 -55
40 -153 102 -218 139 -64 37 -188 121 -275 186 -86 65 -213 156 -282 202 -147
98 -255 186 -336 272 -243 263 -298 487 -155 638 97 104 197 144 547 221 377
83 384 84 629 82 228 -1 367 -12 780 -63 355 -44 529 -81 661 -139 26 -12 62
-21 81 -21 41 0 244 76 368 137 112 56 161 95 211 170 21 32 64 94 95 138 62
87 149 245 173 314 9 23 21 84 27 134 13 108 45 223 95 345 70 169 76 187 91
292 28 193 28 183 -6 223 -66 74 -207 142 -370 177 -162 35 -731 109 -881 115
-238 9 -381 11 -445 8z"/>
<path d="M17705 30240 c-119 -21 -564 -137 -830 -215 -104 -31 -253 -71 -330
-90 -195 -48 -241 -63 -316 -101 -76 -38 -129 -79 -129 -100 0 -33 -52 -113
-106 -164 -126 -119 -134 -150 -40 -150 39 0 69 -20 61 -40 -3 -8 -63 -45
-133 -83 l-127 -67 -3 -119 -2 -119 52 -15 c80 -22 159 -35 313 -51 189 -20
235 -38 270 -106 27 -53 16 -217 -29 -400 -81 -332 -116 -498 -126 -604 -6
-61 -13 -118 -15 -126 -3 -8 -11 -65 -19 -127 -11 -85 -24 -133 -54 -205 -46
-108 -64 -165 -127 -418 -47 -184 -97 -334 -140 -420 -13 -25 -53 -90 -89
-144 -58 -88 -73 -122 -125 -280 -32 -100 -77 -260 -100 -357 -39 -171 -135
-494 -187 -631 -49 -130 -143 -193 -404 -268 -174 -50 -506 -180 -645 -253
l-100 -52 -131 -195 c-225 -336 -231 -412 -34 -504 93 -44 92 -44 365 -27 360
22 476 36 1030 125 455 73 994 146 1078 146 86 0 123 -12 182 -59 33 -27 45
-31 73 -26 56 10 141 47 168 72 25 23 26 28 19 91 -8 82 6 125 69 220 32 48
60 114 101 236 55 161 57 172 52 243 -4 53 -1 84 9 108 18 44 18 45 -9 45 -36
0 -47 19 -47 81 0 46 -3 59 -17 63 -10 2 -83 10 -162 17 -116 10 -163 10 -238
-1 -147 -20 -229 4 -270 77 -65 115 -30 288 144 723 63 155 158 434 282 822
22 69 56 204 75 300 46 234 332 1362 399 1573 30 94 60 195 67 225 47 203 216
304 615 370 161 26 264 47 333 68 60 18 61 20 88 176 18 103 14 129 -27 167
l-29 27 2 154 c3 174 -7 212 -76 281 -49 49 -96 72 -211 102 -119 31 -269 33
-420 5z m84 -776 c34 -10 61 -20 61 -24 0 -7 -287 -90 -312 -90 -24 0 -41 27
-34 55 6 24 55 56 116 76 32 10 91 4 169 -17z m-1429 -253 c0 -4 -27 -13 -60
-18 -43 -7 -60 -7 -57 1 6 17 117 34 117 17z m-49 -4920 l23 -19 -39 -6 c-22
-3 -85 -11 -140 -17 -55 -6 -102 -13 -104 -15 -8 -8 89 -4 166 7 87 12 347 3
337 -12 -22 -37 -186 -83 -344 -97 -74 -7 -125 -18 -170 -37 -95 -38 -317 -91
-465 -109 -506 -63 -741 -84 -885 -79 -81 3 -155 11 -168 17 l-23 12 40 37
c48 43 79 53 246 72 72 9 195 25 275 35 80 11 204 26 275 34 142 17 278 52
354 92 38 19 90 31 222 50 95 14 200 31 233 39 90 19 140 18 167 -4z"/>
<path d="M22260 20558 c-346 -26 -626 -251 -720 -578 -28 -96 -38 -302 -20
-404 57 -325 296 -577 616 -649 281 -64 572 -1 776 167 119 98 215 254 259
421 25 95 30 292 10 395 -52 265 -238 491 -485 590 -131 53 -270 71 -436 58z
m303 -351 c172 -85 256 -262 244 -512 -9 -175 -53 -283 -153 -374 -89 -81
-211 -114 -373 -99 -97 8 -203 59 -261 125 -127 144 -164 403 -89 621 42 124
134 216 259 260 56 20 80 22 182 19 111 -3 120 -5 191 -40z"/>
<path d="M28885 20558 c-137 -11 -281 -80 -361 -172 -20 -22 -53 -75 -73 -116
-36 -74 -36 -77 -36 -200 0 -156 19 -211 102 -301 69 -73 162 -121 343 -174
230 -67 285 -119 266 -250 -15 -97 -111 -154 -241 -142 -76 7 -145 33 -238 88
-82 49 -131 56 -167 24 -21 -19 -92 -123 -120 -176 -12 -21 -9 -26 31 -62 57
-51 202 -120 309 -148 129 -34 307 -32 414 5 184 63 284 160 341 330 21 61 26
96 26 174 0 141 -34 226 -124 309 -66 60 -150 101 -325 159 -128 43 -189 69
-222 96 -76 63 -63 185 26 235 89 51 201 40 348 -32 132 -66 146 -60 232 99
l47 89 -29 24 c-40 33 -199 108 -259 123 -74 18 -199 26 -290 18z"/>
<path d="M30470 20558 c-343 -24 -616 -243 -716 -573 -25 -81 -27 -106 -28
-245 -1 -164 9 -219 58 -342 41 -100 88 -169 176 -259 73 -74 100 -93 190
-138 155 -76 233 -94 415 -94 179 0 260 18 400 87 111 55 187 115 259 203 282
341 233 908 -103 1177 -181 146 -385 203 -651 184z m251 -328 c154 -52 245
-160 285 -339 24 -109 15 -292 -19 -385 -79 -215 -245 -309 -496 -284 -185 19
-320 144 -366 340 -17 75 -20 255 -4 330 26 120 107 244 196 299 98 61 286 78
404 39z"/>
<path d="M32367 20559 c-109 -9 -207 -38 -312 -92 -61 -31 -102 -63 -171 -132
-80 -80 -98 -104 -143 -197 -73 -149 -95 -256 -88 -443 3 -100 11 -163 26
-219 63 -228 196 -393 400 -496 236 -118 594 -99 809 43 67 45 142 117 142
136 0 5 -37 48 -82 95 -103 107 -112 108 -215 30 -51 -39 -115 -60 -210 -69
-228 -23 -408 111 -470 348 -22 83 -22 260 1 351 34 141 118 250 234 304 46
21 76 27 153 30 116 5 183 -12 279 -69 67 -39 106 -47 140 -29 20 11 150 183
150 199 0 13 -72 70 -135 109 -67 41 -219 91 -297 97 -35 3 -76 7 -93 8 -16 2
-70 0 -118 -4z"/>
<path d="M38109 20558 c-304 -28 -505 -267 -469 -557 27 -206 139 -312 417
-396 172 -52 218 -72 257 -115 39 -43 51 -83 41 -140 -9 -54 -42 -99 -90 -124
-32 -17 -58 -21 -130 -21 -81 0 -97 4 -160 33 -38 18 -90 46 -115 62 -114 73
-140 58 -268 -152 l-23 -36 65 -46 c301 -216 715 -216 928 -1 108 109 153 237
146 407 -4 84 -9 106 -36 161 -61 122 -160 190 -397 267 -151 50 -238 92 -266
131 -27 39 -26 116 4 159 36 54 88 75 187 75 82 0 89 -2 196 -53 154 -73 162
-70 248 92 l48 89 -29 23 c-48 41 -185 103 -268 123 -94 23 -181 29 -286 19z"/>
<path d="M42895 20559 c-447 -35 -744 -395 -722 -874 7 -147 33 -250 92 -370
114 -231 314 -370 586 -405 250 -33 491 35 644 182 l70 68 -90 90 c-67 67 -96
90 -115 90 -15 0 -54 -20 -90 -45 -107 -75 -244 -101 -375 -71 -88 21 -137 50
-203 120 -93 98 -132 215 -132 391 0 239 80 400 237 477 58 28 79 33 163 36
117 5 185 -12 281 -69 112 -67 131 -60 243 93 l56 77 -53 45 c-138 122 -359
183 -592 165z"/>
<path d="M23374 20533 c31 -97 496 -1607 496 -1609 0 -2 78 -4 173 -4 l172 0
170 555 c93 304 173 549 176 542 3 -7 80 -256 170 -554 l164 -543 173 0 c94 0
172 2 172 5 0 6 489 1590 497 1613 4 9 -29 12 -145 12 -177 0 -204 -4 -240
-39 -25 -23 -41 -77 -149 -491 -67 -256 -127 -490 -134 -520 -10 -39 -14 -48
-17 -31 -2 13 -73 246 -157 518 -109 353 -159 501 -175 518 -34 36 -82 48
-174 43 -84 -4 -126 -22 -146 -59 -11 -19 -278 -875 -308 -985 l-18 -66 -18
84 c-39 183 -248 955 -265 978 -29 41 -72 49 -254 49 -156 1 -168 0 -163 -16z"/>
<path d="M26010 19735 l0 -815 165 0 166 0 -3 515 c-2 282 0 511 3 507 4 -4
170 -214 369 -467 200 -253 377 -475 394 -494 48 -51 81 -61 211 -61 l115 0 0
815 0 815 -165 0 -165 0 -2 -512 -3 -513 -397 501 c-314 396 -404 504 -429
513 -18 6 -83 11 -145 11 l-114 0 0 -815z"/>
<path d="M33310 19735 l0 -815 185 0 185 0 0 815 0 815 -185 0 -185 0 0 -815z"/>
<path d="M34541 20528 c-11 -29 -611 -1579 -618 -1596 -5 -11 28 -13 170 -10
l176 3 30 29 c22 21 40 59 67 140 21 61 45 130 55 154 l18 42 305 0 304 0 37
-107 c70 -198 78 -216 114 -240 32 -22 44 -23 199 -23 152 0 164 1 159 18 -5
19 -585 1513 -610 1575 l-16 37 -191 0 c-188 0 -191 0 -199 -22z m419 -979 c0
-5 -99 -9 -220 -9 -121 0 -220 2 -220 4 0 2 50 149 110 327 61 178 110 326
110 329 0 9 220 -642 220 -651z"/>
<path d="M35800 19735 l0 -815 490 0 490 0 0 150 0 150 -302 2 -303 3 -3 663
-2 662 -185 0 -185 0 0 -815z"/>
<path d="M39040 19736 l0 -816 190 0 190 0 0 268 0 269 168 6 c246 9 375 44
498 137 179 135 235 440 124 667 -58 117 -185 209 -355 254 -73 20 -111 22
-447 27 l-368 4 0 -816z m703 508 c58 -20 122 -87 137 -146 25 -92 1 -216 -54
-276 -49 -55 -90 -66 -253 -70 l-153 -4 0 256 0 256 138 0 c100 0 151 -4 185
-16z"/>
<path d="M41001 20528 c-11 -29 -611 -1579 -618 -1596 -5 -11 28 -13 170 -10
l176 3 30 29 c22 21 40 59 67 140 21 61 45 130 55 154 l18 42 305 0 304 0 37
-107 c70 -198 78 -216 114 -240 32 -22 44 -23 199 -23 152 0 164 1 159 18 -5
19 -585 1513 -610 1575 l-16 37 -191 0 c-188 0 -191 0 -199 -22z m419 -979 c0
-5 -99 -9 -220 -9 -121 0 -220 2 -220 4 0 2 50 149 110 327 61 178 110 326
110 329 0 9 220 -642 220 -651z"/>
<path d="M43830 19735 l0 -815 525 0 525 0 0 145 0 145 -335 0 -335 0 0 195 0
195 255 0 255 0 0 140 0 140 -255 0 -255 0 0 190 0 190 335 0 336 0 -3 143 -3
142 -522 3 -523 2 0 -815z"/>
</g>
</svg>
